<svg xmlns="http://www.w3.org/2000/svg" width="550.742" height="587" viewBox="0 0 550.742 587">
  <g id="Group_290" data-name="Group 290" transform="translate(2647.757 2016.892)">
    <g id="Group_275" data-name="Group 275" transform="translate(-2647.757 -2016.891)">
      <g id="Group_272" data-name="Group 272" transform="translate(395.447 101.837)">
        <g id="Group_271" data-name="Group 271">
          <path id="Path_767" data-name="Path 767" d="M-1088.012-1633.6a8.952,8.952,0,0,1-.605,3.219h-34.524c-.024-.024-.036-.048-.059-.072a.172.172,0,0,1-.024.072s-.926,0-2.6.023c-17.09.095-112.62.629-112.62-.214,0-9.738,7.446-17.624,16.626-17.624a15.733,15.733,0,0,1,6.081,1.211,9.781,9.781,0,0,1,6.39-2.375,10.105,10.105,0,0,1,8.444,4.691c.024-.047.047-.107.071-.154a19.661,19.661,0,0,1,9.738-9.073,29.277,29.277,0,0,1,12.4-2.66,31.916,31.916,0,0,1,3.872.237c4.833-9.429,14.275-15.842,25.13-15.842,13.883,0,25.474,10.5,28.051,24.417a9.742,9.742,0,0,1,5.368-1.615,10.156,10.156,0,0,1,9.085,5.843,16.464,16.464,0,0,1,5.594-.962c5.368,0,10,2.494,12.208,6.1A9.114,9.114,0,0,1-1088.012-1633.6Z" transform="translate(1238.445 1672.162)" fill="#dee5f8"/>
        </g>
        <path id="Path_768" data-name="Path 768" d="M-1000.321-1638.375c-4.406-1.176-9.121-1.14-13.729-1.081l-30.842.356c-12.315.142-23.289-6.9-35.877-5.76-6.033.558-12.173,3.016-17.969,3.361-4.6.273-10.19-.546-13.028-3.325a19.661,19.661,0,0,1,9.738-9.073,29.278,29.278,0,0,1,12.4-2.66,31.912,31.912,0,0,1,3.871.237c4.834-9.429,14.275-15.842,25.13-15.842,13.883,0,25.474,10.5,28.051,24.417a9.743,9.743,0,0,1,5.368-1.615,10.156,10.156,0,0,1,9.085,5.843,16.463,16.463,0,0,1,5.594-.962C-1007.161-1644.479-1002.53-1641.985-1000.321-1638.375Z" transform="translate(1149.376 1672.162)" fill="#fff" opacity="0.4"/>
      </g>
      <g id="Group_273" data-name="Group 273" transform="translate(0 180.99)">
        <path id="Path_769" data-name="Path 769" d="M-2471.592-1380.243a5.761,5.761,0,0,1-.4,2.114h-22.66a.091.091,0,0,1-.047-.048c0,.024-.012.036-.012.048s-75.651.487-75.651-.131c0-6.39,4.881-11.568,10.914-11.568a10.4,10.4,0,0,1,3.991.8,6.472,6.472,0,0,1,4.192-1.556,6.642,6.642,0,0,1,5.546,3.076c1.638-3.61,5.593-6.4,10.534-7.387a19.481,19.481,0,0,1,4.049-.416,19.922,19.922,0,0,1,2.542.154,18.643,18.643,0,0,1,16.5-10.4c9.12,0,16.721,6.9,18.419,16.033a6.36,6.36,0,0,1,3.528-1.057,6.68,6.68,0,0,1,5.961,3.836,10.836,10.836,0,0,1,3.682-.641C-2475.594-1387.392-2471.592-1384.186-2471.592-1380.243Z" transform="translate(2570.365 1405.563)" fill="#dee5f8"/>
        <path id="Path_770" data-name="Path 770" d="M-2388.289-1380.243a5.775,5.775,0,0,1-.4,2.114h-13.135a30.511,30.511,0,0,0-2.363-3.812c-4.489-5.13-13.836-1.021-19.251-5.154-.986-.748-1.782-1.734-2.8-2.423-3.147-2.09-7.327-.784-10.974.214-3.729,1.022-7.933,1.58-11.282-.356a7.236,7.236,0,0,1-3.385-5.237,19.482,19.482,0,0,1,4.05-.416,19.926,19.926,0,0,1,2.541.154,18.643,18.643,0,0,1,16.5-10.4c9.121,0,16.722,6.9,18.42,16.033a6.359,6.359,0,0,1,3.527-1.057,6.68,6.68,0,0,1,5.962,3.836,10.83,10.83,0,0,1,3.682-.641C-2392.291-1387.392-2388.289-1384.186-2388.289-1380.243Z" transform="translate(2487.062 1405.563)" fill="#fff" opacity="0.4"/>
      </g>
      <g id="Group_274" data-name="Group 274" transform="translate(24.132 0)">
        <path id="Path_771" data-name="Path 771" d="M-2343.283-1974.855c0,.9-111.682.178-111.682.178a.106.106,0,0,1-.012-.059c-.023.024-.047.035-.072.059H-2488.5a8.614,8.614,0,0,1-.582-3.111c0-5.831,5.89-10.546,13.159-10.546a16.065,16.065,0,0,1,5.427.927,9.865,9.865,0,0,1,8.812-5.653,9.455,9.455,0,0,1,5.189,1.556c2.506-13.491,13.741-23.656,27.2-23.656a2.386,2.386,0,0,1,.286.011,27.488,27.488,0,0,1,24.072,15.344,29.754,29.754,0,0,1,3.753-.238c9.976,0,18.467,4.81,21.519,11.52a9.811,9.811,0,0,1,8.182-4.537,9.516,9.516,0,0,1,6.2,2.3,15.249,15.249,0,0,1,5.891-1.176,16.082,16.082,0,0,1,14.583,9.81A17.746,17.746,0,0,1-2343.283-1974.855Z" transform="translate(2489.085 2015.162)" fill="#dee5f8"/>
        <path id="Path_772" data-name="Path 772" d="M-2208.213-1982.095c-5.024,1.686-10.677,1.9-16.057,2.019-12.552.273-25.9.344-36.578-6.247-3.705-2.281-6.971-5.309-10.961-7.031-6.674-2.885-15.249-2.114-20.165-7.458a11.272,11.272,0,0,1-1.318-13.087,8.829,8.829,0,0,1,.879-1.223,27.487,27.487,0,0,1,24.072,15.344,29.812,29.812,0,0,1,3.753-.238c9.976,0,18.467,4.81,21.519,11.52a9.814,9.814,0,0,1,8.183-4.537,9.513,9.513,0,0,1,6.2,2.3,15.248,15.248,0,0,1,5.891-1.176A16.082,16.082,0,0,1-2208.213-1982.095Z" transform="translate(2352.483 2015.134)" fill="#fff" opacity="0.4"/>
      </g>
    </g>
    <g id="Group_289" data-name="Group 289" transform="translate(-2647.757 -2011.69)">
      <g id="Group_276" data-name="Group 276" transform="translate(0 389.249)">
        <path id="Path_773" data-name="Path 773" d="M-2097.016-502.72-2545.1-500.4l-102.656.527,45.53-91.06,46.953-41.261,64.027-19.919,29.637-40.308h134.7l52.772,43.979,78.952,25.611,46.128,43.282,1.1,1.622,49.557,73.161Z" transform="translate(2647.758 692.423)" fill="#3895d0"/>
        <path id="Path_774" data-name="Path 774" d="M-1527.5-504.769l-34.29-3.642-80.631-53.113L-1743.2-576.706l-31.3-43.4-4.51-31.544-40.922-10.333-15.834-30.444H-1756l52.772,43.979,78.952,25.611,46.128,43.282,1.1,1.622Z" transform="translate(2076.845 692.423)" fill="#dff3ff" opacity="0.1"/>
        <path id="Path_775" data-name="Path 775" d="M-2459.709-625.081l-66.4,38.89L-2545.1-500.4l-102.656.527,45.53-91.06,46.953-41.261,64.027-19.919,29.637-40.308Z" transform="translate(2647.758 692.423)" fill="#1b7dbb"/>
      </g>
      <g id="Group_288" data-name="Group 288" transform="translate(194.369 0)">
        <g id="Group_277" data-name="Group 277" transform="translate(83.188 363.094)">
          <path id="Path_776" data-name="Path 776" d="M-1693.843-769.445l.124-11.071-16.039,1.134-.462,9.15A55.7,55.7,0,0,0-1693.843-769.445Z" transform="translate(1711.018 780.516)" fill="#f9b384"/>
          <path id="Path_777" data-name="Path 777" d="M-1678.372-730.071c-4.349-7.121-10.295-9.5-17.394-10.4l.033-4.621a55.693,55.693,0,0,1-16.377-.787l-.8,15.806Z" transform="translate(1712.908 756.161)" fill="#102048"/>
        </g>
        <g id="Group_278" data-name="Group 278" transform="translate(0 363.472)">
          <path id="Path_778" data-name="Path 778" d="M-1972.346-739.589l-1.466,3.352c-7.1.9-13.453,4.723-19.285,10.587h33.654l3.58-13.9A47.4,47.4,0,0,1-1972.346-739.589Z" transform="translate(1993.097 751.362)" fill="#102048"/>
          <path id="Path_779" data-name="Path 779" d="M-1906.723-767.429l2.848-11.057-14.18-.756-5.15,11.773A47.4,47.4,0,0,0-1906.723-767.429Z" transform="translate(1943.956 779.243)" fill="#f9b384"/>
        </g>
        <path id="Path_780" data-name="Path 780" d="M-1837.871-1358.246c8.444,54.954,6.05,109.657-5.672,164.863h-20.167c2.408-35.831,4.247-78.425-1.386-106.632l-38.475,107.1H-1925.6l36.3-152.48,12.478-24.452,29.242-3.53Z" transform="translate(1945.638 1560.447)" fill="#3895d0"/>
        <path id="Path_781" data-name="Path 781" d="M-1539.7-1755.744l5.42-16.26,14.672,3.427c1.1,5.444-5.487,13.706-10.386,19.89Z" transform="translate(1674.314 1840.725)" fill="#f9b384"/>
        <path id="Path_782" data-name="Path 782" d="M-1750.787-1580.332l-16.894.2-1.679-22.128-.2-2.647,16.97-.151.605,8.394Z" transform="translate(1835.926 1723.348)" fill="#f9b384"/>
        <path id="Path_783" data-name="Path 783" d="M-1752.077-1598.191c-5.53,3.947-12.761,1.489-17.284-4.072l-.2-2.647,16.97-.151Z" transform="translate(1835.926 1723.349)" fill="#102048"/>
        <path id="Path_784" data-name="Path 784" d="M-1777.091-1661c-8.575,1.959-18.147-3.539-21.923-10.843l-.51-13.111,4.8-6.8,20.415,1.757c-.1.024-.083.309,0,.8.238,1.271,1.021,3.979,1.746,7.245C-1770.785-1674.019-1769.36-1662.772-1777.091-1661Z" transform="translate(1856.997 1784.307)" fill="#f9b384"/>
        <path id="Path_785" data-name="Path 785" d="M-1781.3-1560.123s12.6,10.083,23.57-4.286l20.8,69.071c-12.734,9-28.832,12.1-48.148,9.579Z" transform="translate(1846.839 1694.765)" fill="#fff"/>
        <g id="Group_279" data-name="Group 279" transform="translate(68.245 139.454)" opacity="0.3">
          <path id="Path_786" data-name="Path 786" d="M-1763.24-1530.008a22.96,22.96,0,0,0,5.311,1.208,17.62,17.62,0,0,0,5.307-.213,17.06,17.06,0,0,0,5-1.749,22.6,22.6,0,0,0,2.328-1.379c.773-.486,1.447-1.105,2.231-1.625a26.919,26.919,0,0,1-1.841,2.106,15.186,15.186,0,0,1-2.219,1.748,14.062,14.062,0,0,1-5.271,2.139A14.526,14.526,0,0,1-1763.24-1530.008Z" transform="translate(1763.24 1533.766)" fill="#1f3c88"/>
        </g>
        <path id="Path_787" data-name="Path 787" d="M-1659.811-1727.428c-11.4,19.257-22.526,36.178-32.579,44.241a7.8,7.8,0,0,1-5.3,1.634,42.275,42.275,0,0,0-12.029,1.3c.912,34.553,4.19,66.559,15.945,86.182,7.08-2.042,15.67-5.325,20.419-9.327-3.869-13.13-8.443-31.954-11.848-48.4l37.687-67.307Z" transform="translate(1793.858 1809.384)" fill="#3895d0"/>
        <path id="Path_788" data-name="Path 788" d="M-1765-1675.918c-12.976,7.387-23.764-6.073-23.764-6.073l22.018-1.172C-1766.509-1681.891-1765.726-1679.184-1765-1675.918Z" transform="translate(1849.431 1778.261)" fill="#e28b6d"/>
        <path id="Path_789" data-name="Path 789" d="M-1814.056-1696.641c1.59-2.058,2.318-5.515.882-12.479,4.727,5.348,11.755,6.6,22.057,2.017,0,0,6.7-2.622,5.168-9.453-1.386-6.176-6.554-9.453-10.587-4.411-9.152-2.671-18.15-3.151-22.183,5.167,0,0-12.857,6.68-1.891,17.52Z" transform="translate(1874.935 1806.579)" fill="#102048"/>
        <g id="Group_280" data-name="Group 280" transform="translate(22.713 235.327)">
          <path id="Path_790" data-name="Path 790" d="M-1897.176-1193.537l-2.214-.493,2.31-10.353-15.274-3.715-2.024,9.447-2.219-.476,2.513-11.728,19.7,4.793Z" transform="translate(1916.598 1210.854)" fill="#03336e"/>
        </g>
        <path id="Path_791" data-name="Path 791" d="M-1893.811-1262.455c-.378.526-1.765,11.186-1.765,11.186s-6.176,5.79-2.016,9.344,9.2,3.422,11.6.789a15.582,15.582,0,0,0-.126-9.212l2.4-11.844Z" transform="translate(1926.96 1482.462)" fill="#f9b384"/>
        <path id="Path_792" data-name="Path 792" d="M-1926.837-1181.5l-6.1,25.819-2.345,9.968-39.582-14.868,5.218-21.765,2.481-10.376Z" transform="translate(1980.274 1433.435)" fill="#03336e"/>
        <g id="Group_283" data-name="Group 283" transform="translate(104.396 24.824)">
          <path id="Path_793" data-name="Path 793" d="M-1491.518-1743.188l-21.018,12.741-.942-7.389,15.844-9.6Z" transform="translate(1551.481 1798.631)" fill="#6f3428"/>
          <path id="Path_794" data-name="Path 794" d="M-1520.778-1783.547l-5.389,3.267-12.793-18.186,7.976-4.835Z" transform="translate(1569.398 1837.906)" fill="#bb9132"/>
          <path id="Path_795" data-name="Path 795" d="M-1588.86-1879.2l-10.124,6.138a5.343,5.343,0,0,1-6.887-1.164l-16.94-20.486,25.776-15.626,10.328,24.495A5.343,5.343,0,0,1-1588.86-1879.2Z" transform="translate(1628.353 1913.166)" fill="#fbc343"/>
          <g id="Group_281" data-name="Group 281" transform="translate(30.371)">
            <path id="Path_796" data-name="Path 796" d="M-1531.3-1898.815l-1.4-.581c3.89-9.365,3.212-16.973.354-18.651-1.488-.873-3.546.158-5.65,2.824l-1.189-.937c3.727-4.721,6.559-3.8,7.6-3.191C-1528.1-1917.308-1527.044-1909.068-1531.3-1898.815Z" transform="translate(1539.184 1919.856)" fill="#fbc343"/>
          </g>
          <g id="Group_282" data-name="Group 282" transform="translate(0 18.276)">
            <path id="Path_797" data-name="Path 797" d="M-1623.4-1843.292c-11.06-.966-17.878-5.712-18.079-9.743-.061-1.21.437-4.145,6.346-5.265l.281,1.486c-3.337.632-5.2,1.982-5.117,3.7.165,3.311,6.6,7.43,16.7,8.313Z" transform="translate(1641.479 1858.3)" fill="#fbc343"/>
          </g>
          <path id="Path_798" data-name="Path 798" d="M-1550.454-1875c-.888-1.538-.842-3.225.1-3.771s2.428.26,3.315,1.8.843,3.225-.1,3.77S-1549.566-1873.458-1550.454-1875Z" transform="translate(1577.927 1891.086)" fill="#fff" opacity="0.6"/>
        </g>
        <path id="Path_799" data-name="Path 799" d="M-1497.639-1779.382c.368,2.621-1.287,4.961-4.782,4.961-2.184,0-5.242-3-5.886-6.552-.531-2.933.6-4.856,2.667-5.709C-1503.516-1787.559-1498.333-1784.326-1497.639-1779.382Z" transform="translate(1652.334 1851.147)" fill="#f9b384"/>
        <g id="Group_287" data-name="Group 287" transform="translate(87.116 0)">
          <g id="Group_284" data-name="Group 284" transform="translate(0 24.104)">
            <rect id="Rectangle_57" data-name="Rectangle 57" width="2.375" height="19.295" transform="translate(0 2.265) rotate(-72.512)" fill="#fbc343"/>
          </g>
          <g id="Group_285" data-name="Group 285" transform="translate(36.752)">
            <rect id="Rectangle_58" data-name="Rectangle 58" width="19.294" height="2.374" transform="translate(0 19) rotate(-79.986)" fill="#fbc343"/>
          </g>
          <g id="Group_286" data-name="Group 286" transform="translate(14.954 5.003)">
            <rect id="Rectangle_59" data-name="Rectangle 59" width="2.374" height="19.294" transform="matrix(0.842, -0.539, 0.539, 0.842, 0, 1.28)" fill="#fbc343"/>
          </g>
        </g>
        <path id="Path_800" data-name="Path 800" d="M-1871.374-1513.211l-3.025,45.627c16.889-.756,28.233-6.3,28.233-6.3,1.467-27.233-2.03-57.7-12.809-85.11-27.376,10.174-35.1,43.881-39.159,93.97l16.037,1.86Z" transform="translate(1926.328 1690.959)" fill="#3895d0"/>
        <path id="Path_801" data-name="Path 801" d="M-1807.856-1636.157c-5.15,1.837-8.443,1.422-8.716-3.5-.157-2.825,2.753-5.075,5.318-3.882a8.708,8.708,0,0,1,3.146,2.845Z" transform="translate(1868.987 1750.632)" fill="#f9b384"/>
        <path id="Path_802" data-name="Path 802" d="M-1932.932-1131.113l-2.344,9.968-39.583-14.868,5.218-21.765C-1964.771-1147.7-1954.471-1135.211-1932.932-1131.113Z" transform="translate(1980.274 1408.863)" fill="#102048" opacity="0.15"/>
        <path id="Path_803" data-name="Path 803" d="M-1640.071-1525.149c.681,2.165,1.274,4.351,1.847,6.541.589,2.186,1.107,4.389,1.623,6.592s.992,4.415,1.423,6.638.847,4.448,1.156,6.7l-.576.132c-.7-2.161-1.288-4.348-1.869-6.536s-1.1-4.39-1.6-6.6-.982-4.417-1.4-6.642c-.436-2.221-.851-4.448-1.178-6.694Z" transform="translate(1745.29 1667.162)" fill="#1b7dbb"/>
        <path id="Path_804" data-name="Path 804" d="M-1809.862-1456.6c.076,2.193.062,4.382.027,6.57-.018,2.189-.108,4.375-.2,6.56s-.226,4.369-.407,6.55-.375,4.361-.68,6.537l-.591-.028c-.095-2.194-.076-4.383-.049-6.572s.115-4.374.223-6.559.237-4.368.429-6.549c.175-2.181.371-4.362.657-6.537Z" transform="translate(1865.615 1618.983)" fill="#1b7dbb"/>
        <path id="Path_805" data-name="Path 805" d="M-1734.226-1163.608c.68-2.5,1.444-4.964,2.229-7.423.768-2.466,1.635-4.9,2.448-7.347q1.286-3.652,2.636-7.281c.925-2.411,1.857-4.819,2.9-7.19l.558.195c-.662,2.5-1.431,4.968-2.208,7.431q-1.2,3.682-2.469,7.34c-.889,2.424-1.723,4.866-2.657,7.274-.917,2.413-1.854,4.82-2.876,7.2Z" transform="translate(1811.085 1433.522)" fill="#708cd5"/>
        <path id="Path_806" data-name="Path 806" d="M-1806.345-1634.669c-.265-.371-.511-.751-.771-1.1a5.538,5.538,0,0,0-.818-.941.909.909,0,0,0-.841-.314c-.312.04-.625.375-.972.654l-.292-.184a2.036,2.036,0,0,1,1.007-1.2,1.6,1.6,0,0,1,1.675.384,4.766,4.766,0,0,1,1.334,2.58Z" transform="translate(1864.388 1746.411)" fill="#102048"/>
        <path id="Path_807" data-name="Path 807" d="M-1518.414-1769.167c.551-2.085.267-3.969-.634-4.207s-2.287.737-2.837,2.823-1.183,5.089.237,5.76C-1519.131-1763.6-1518.965-1767.081-1518.414-1769.167Z" transform="translate(1662.23 1841.713)" fill="#f9b384"/>
      </g>
    </g>
  </g>
</svg>
